<svg width="40" height="41" viewBox="0 0 40 41" fill="none" xmlns="http://www.w3.org/2000/svg">
<path d="M28.3332 35.5V32.1667C28.3332 30.3986 27.6308 28.7029 26.3806 27.4526C25.1303 26.2024 23.4346 25.5 21.6665 25.5H8.33317C6.56506 25.5 4.86937 26.2024 3.61913 27.4526C2.36888 28.7029 1.6665 30.3986 1.6665 32.1667V35.5" stroke="white" stroke-width="2" stroke-linecap="round" stroke-linejoin="round"/>
<path d="M15.0002 18.8333C18.6821 18.8333 21.6668 15.8486 21.6668 12.1667C21.6668 8.48477 18.6821 5.5 15.0002 5.5C11.3183 5.5 8.3335 8.48477 8.3335 12.1667C8.3335 15.8486 11.3183 18.8333 15.0002 18.8333Z" stroke="white" stroke-width="2" stroke-linecap="round" stroke-linejoin="round"/>
<path d="M38.3335 35.4999V32.1666C38.3324 30.6894 37.8408 29.2545 36.9358 28.0871C36.0308 26.9196 34.7637 26.0858 33.3335 25.7166" stroke="white" stroke-width="2" stroke-linecap="round" stroke-linejoin="round"/>
<path d="M26.6665 5.71655C28.1005 6.08372 29.3716 6.91772 30.2792 8.08707C31.1869 9.25642 31.6796 10.6946 31.6796 12.1749C31.6796 13.6552 31.1869 15.0934 30.2792 16.2627C29.3716 17.4321 28.1005 18.2661 26.6665 18.6332" stroke="white" stroke-width="2" stroke-linecap="round" stroke-linejoin="round"/>
</svg>
