<svg width="40" height="41" viewBox="0 0 40 41" fill="none" xmlns="http://www.w3.org/2000/svg">
<path d="M31.4144 5.5V5.51417H31.4286H35.7143C38.0744 5.51417 39.9858 7.18923 39.9858 9.25V12.9858H0.0141705V9.25C0.0141705 7.18923 1.92563 5.51417 4.28571 5.51417H8.57143H8.5856V5.5V1.75C8.5856 1.07204 9.22028 0.514171 10 0.514171H12.8571C13.6369 0.514171 14.2715 1.07204 14.2715 1.75V5.5V5.51417H14.2857H25.7143H25.7285V5.5V1.75C25.7285 1.07204 26.3631 0.514171 27.1429 0.514171H30C30.7797 0.514171 31.4144 1.07204 31.4144 1.75V5.5ZM4.28571 40.4858C1.92563 40.4858 0.0141705 38.8108 0.0141705 36.75V15.5142H39.9858V36.75C39.9858 38.8108 38.0744 40.4858 35.7143 40.4858H4.28571ZM29.6429 20.4858C29.0476 20.4858 28.5573 20.9123 28.5573 21.4375V24.5625C28.5573 25.0877 29.0476 25.5142 29.6429 25.5142H33.2143C33.8096 25.5142 34.2999 25.0877 34.2999 24.5625V21.4375C34.2999 20.9123 33.8096 20.4858 33.2143 20.4858H29.6429ZM29.6429 30.4858C29.0476 30.4858 28.5573 30.9123 28.5573 31.4375V34.5625C28.5573 35.0877 29.0476 35.5142 29.6429 35.5142H33.2143C33.8096 35.5142 34.2999 35.0877 34.2999 34.5625V31.4375C34.2999 30.9123 33.8096 30.4858 33.2143 30.4858H29.6429ZM18.2143 20.4858C17.619 20.4858 17.1287 20.9123 17.1287 21.4375V24.5625C17.1287 25.0877 17.619 25.5142 18.2143 25.5142H21.7857C22.381 25.5142 22.8713 25.0877 22.8713 24.5625V21.4375C22.8713 20.9123 22.381 20.4858 21.7857 20.4858H18.2143ZM18.2143 30.4858C17.619 30.4858 17.1287 30.9123 17.1287 31.4375V34.5625C17.1287 35.0877 17.619 35.5142 18.2143 35.5142H21.7857C22.381 35.5142 22.8713 35.0877 22.8713 34.5625V31.4375C22.8713 30.9123 22.381 30.4858 21.7857 30.4858H18.2143ZM6.78571 20.4858C6.19044 20.4858 5.70011 20.9123 5.70011 21.4375V24.5625C5.70011 25.0877 6.19044 25.5142 6.78571 25.5142H10.3571C10.9524 25.5142 11.4427 25.0877 11.4427 24.5625V21.4375C11.4427 20.9123 10.9524 20.4858 10.3571 20.4858H6.78571ZM6.78571 30.4858C6.19044 30.4858 5.70011 30.9123 5.70011 31.4375V34.5625C5.70011 35.0877 6.19044 35.5142 6.78571 35.5142H10.3571C10.9524 35.5142 11.4427 35.0877 11.4427 34.5625V31.4375C11.4427 30.9123 10.9524 30.4858 10.3571 30.4858H6.78571Z" fill="white" stroke="white" stroke-width="0.028341"/>
</svg>
