<svg width="28" height="29" viewBox="0 0 28 29" fill="none" xmlns="http://www.w3.org/2000/svg">
<path d="M28 14.0093C28.0015 11.6797 27.4217 9.38647 26.3131 7.33755C25.2044 5.28863 23.602 3.54875 21.651 2.27561C19.7001 1.00246 17.4623 0.236284 15.1404 0.046525C12.8185 -0.143234 10.4859 0.249419 8.35415 1.1889C6.22236 2.12838 4.35871 3.58498 2.9321 5.4267C1.50548 7.26843 0.56101 9.43704 0.184276 11.736C-0.192458 14.035 0.0104556 16.3916 0.774627 18.5923C1.5388 20.7931 2.84007 22.7683 4.56051 24.3391C4.60769 24.3943 4.66202 24.4429 4.72206 24.4838C7.27906 26.755 10.5803 28.0094 14.0003 28.0093C17.4203 28.0092 20.7215 26.7546 23.2784 24.4833C23.338 24.4428 23.3919 24.3945 23.4388 24.3397C24.8763 23.0302 26.0246 21.435 26.81 19.6561C27.5955 17.8772 28.0008 15.9539 28 14.0093ZM1.64706 14.0093C1.64552 11.9931 2.13753 10.0071 3.08014 8.22477C4.02274 6.44245 5.38729 4.91794 7.05465 3.78433C8.72202 2.65072 10.6415 1.94248 12.6456 1.72141C14.6497 1.50035 16.6774 1.77319 18.5518 2.51612C20.4261 3.25905 22.0901 4.44949 23.3986 5.98351C24.707 7.51753 25.62 9.3485 26.058 11.3166C26.4959 13.2847 26.4455 15.33 25.9111 17.2742C25.3767 19.2183 24.3745 21.002 22.9921 22.4697C21.6977 20.4578 19.7636 18.9404 17.5015 18.162C18.6291 17.4104 19.4851 16.316 19.9428 15.0405C20.4004 13.7649 20.4356 12.376 20.0429 11.079C19.6503 9.78191 18.8508 8.64562 17.7626 7.83803C16.6744 7.03044 15.3552 6.59441 14 6.59441C12.6448 6.59441 11.3256 7.03044 10.2374 7.83803C9.14918 8.64562 8.34966 9.78191 7.95705 11.079C7.56444 12.376 7.59957 13.7649 8.05725 15.0405C8.51492 16.316 9.37086 17.4104 10.4985 18.162C8.23637 18.9403 6.30223 20.4578 5.00789 22.4697C2.84749 20.1827 1.64487 17.1553 1.64706 14.0093ZM9.33333 12.9112C9.33333 11.9883 9.60703 11.086 10.1198 10.3186C10.6326 9.55115 11.3614 8.95301 12.2141 8.5998C13.0669 8.24659 14.0052 8.15418 14.9104 8.33424C15.8157 8.51431 16.6472 8.95876 17.2998 9.61141C17.9525 10.2641 18.3969 11.0956 18.577 12.0008C18.7571 12.9061 18.6646 13.8444 18.3114 14.6971C17.9582 15.5498 17.3601 16.2787 16.5927 16.7914C15.8252 17.3042 14.923 17.5779 14 17.5779C12.7628 17.5765 11.5766 17.0844 10.7017 16.2095C9.82685 15.3347 9.33474 14.1485 9.33333 12.9112ZM6.23732 23.6107C7.04352 22.2726 8.18191 21.1656 9.54203 20.3972C10.9022 19.6288 12.4378 19.225 14 19.225C15.5622 19.225 17.0978 19.6288 18.458 20.3972C19.8181 21.1657 20.9565 22.2727 21.7626 23.6108C19.5671 25.3908 16.8265 26.3622 14 26.3622C11.1735 26.3622 8.43285 25.3908 6.23732 23.6107Z" fill="black"/>
</svg>
