<svg width="21" height="21" viewBox="0 0 21 21" fill="none" xmlns="http://www.w3.org/2000/svg">
<g clip-path="url(#clip0_2772_1274)">
<path d="M19.1677 9.65349V10.455C19.1666 12.3338 18.5582 14.1619 17.4333 15.6667C16.3084 17.1715 14.7272 18.2723 12.9255 18.805C11.1238 19.3377 9.19819 19.2737 7.43583 18.6226C5.67348 17.9715 4.16881 16.7682 3.14623 15.1921C2.12364 13.616 1.63794 11.7515 1.76156 9.8768C1.88518 8.00209 2.61149 6.21756 3.83218 4.78936C5.05286 3.36116 6.70252 2.36581 8.53511 1.95176C10.3677 1.53771 12.285 1.72715 14.0012 2.49181" stroke="black" stroke-width="2" stroke-linecap="round" stroke-linejoin="round"/>
<path d="M19.1676 3.48511L10.4551 12.2063L7.84131 9.59257" stroke="black" stroke-width="2" stroke-linecap="round" stroke-linejoin="round"/>
</g>
<defs>
<clipPath id="clip0_2772_1274">
<rect width="20.91" height="20.91" fill="white"/>
</clipPath>
</defs>
</svg>
