<svg width="24" height="25" viewBox="0 0 24 25" fill="none" xmlns="http://www.w3.org/2000/svg">
<path d="M18 8.91016C18 7.31886 17.3679 5.79273 16.2426 4.66752C15.1174 3.5423 13.5913 2.91016 12 2.91016C10.4087 2.91016 8.88258 3.5423 7.75736 4.66752C6.63214 5.79273 6 7.31886 6 8.91016C6 15.9102 3 17.9102 3 17.9102H21C21 17.9102 18 15.9102 18 8.91016Z" stroke="#212429" stroke-width="2" stroke-linecap="round" stroke-linejoin="round"/>
<path d="M13.73 21.9102C13.5542 22.2132 13.3019 22.4648 12.9982 22.6397C12.6946 22.8146 12.3504 22.9066 12 22.9066C11.6496 22.9066 11.3054 22.8146 11.0018 22.6397C10.6982 22.4648 10.4458 22.2132 10.27 21.9102" stroke="#212429" stroke-width="2" stroke-linecap="round" stroke-linejoin="round"/>
</svg>
